<svg style="height: 512px; width: 512px;" xmlns="http://www.w3.org/2000/svg" viewBox="0 0 512 512"><defs><filter id="shadow-1" height="300%" width="300%" x="-100%" y="-100%"><feFlood flood-color="rgba(255, 0, 0, 1)" result="flood"></feFlood><feComposite in="flood" in2="SourceGraphic" operator="atop" result="composite"></feComposite><feGaussianBlur in="composite" stdDeviation="15" result="blur"></feGaussianBlur><feOffset dx="0" dy="0" result="offset"></feOffset><feComposite in="SourceGraphic" in2="offset" operator="over"></feComposite></filter></defs><circle cx="256" cy="256" r="256" fill="rgba(255, 255, 255, 1)"></circle><g class="" style="touch-action: none;" transform="translate(0,0)"><path fill="rgba(61, 8, 20, 1)" d="M322.248 85.684L61.432 224.717l-41.145 109.94 7.233 3.85 153.673 81.8 308.495-164.215-37.752-99.903-129.688-70.506zm119.035 95.187l25.11 66.45-102.56 54.594L430.39 186.64l10.893-5.77zm-89.576 47.417L284.957 343.9l-41.67 22.182 72.195-118.62 36.225-19.175zM72.38 248.78l28.21 14.933-54.012 54.012L72.38 248.78zm210.827 15.767L211.19 382.87l.26.16-17.208 9.16 5.795-83.618 83.17-44.025zm-165.334 8.312l16.963 8.98-60.445 60.445-16.93-9.012 60.413-60.414zM181.42 306.9l-6.174 89.07-54.1-28.798 60.274-60.272z" transform="translate(76.8, 76.8) scale(0.7, 0.7) rotate(0, 256, 256)" filter="url(#shadow-1)"></path></g></svg>